<?xml version="1.0"?>
<svg xmlns="http://www.w3.org/2000/svg" xmlns:xlink="http://www.w3.org/1999/xlink" version="1.1" id="Capa_1" x="0px" y="0px" viewBox="0 0 512.003 512.003" style="enable-background:new 0 0 512.003 512.003;" xml:space="preserve" width="150px" height="150px" class=""><g><path style="fill:#E7ECFD" d="M238.334,504.997c-7.078,0-12.896-5.316-13.532-12.366l-4.203-46.628h88.607l-4.203,46.627  c-0.637,7.053-6.454,12.368-13.532,12.368h-53.136V504.997z" data-original="#C97629" class="" data-old_color="#e7ecfd"/><path style="fill:#E7ECFD" d="M220.861,447.003c-6.65,0-12.062-5.411-12.062-12.062s5.411-12.062,12.062-12.062h89.081  c6.65,0,12.062,5.411,12.062,12.062s-5.411,12.062-12.062,12.062H220.861z" data-original="#B06328" class="" data-old_color="#e7ecfd"/><path style="fill:#989FB7" d="M264.731,492.631l-4.203-46.628h-39.93l4.203,46.628c0.637,7.051,6.454,12.366,13.532,12.366h39.93  C271.186,504.997,265.368,499.681,264.731,492.631z" data-original="#AF570E" class="" data-old_color="#E7ECFD"/><path style="fill:#989FB7" d="M248.728,434.941c0-6.65,5.411-12.062,12.062-12.062h-39.93c-6.65,0-12.062,5.411-12.062,12.062  s5.411,12.062,12.062,12.062h39.93C254.14,447.003,248.728,441.592,248.728,434.941z" data-original="#A0521D" class="" data-old_color="#A3ABC5"/><g>
	<path style="fill:#F6F8FF" d="M71.161,373.282c-10.412,0-18.885-8.472-18.885-18.885s8.472-18.885,18.885-18.885   c0.713,0,1.446,0.044,2.186,0.13c2.719-7.426,9.793-12.386,17.731-12.386c10.412,0,18.885,8.472,18.885,18.885   c0,1.086-0.096,2.179-0.285,3.261c1.424-0.462,2.894-0.696,4.381-0.696c7.879,0,14.288,6.409,14.288,14.288   c0,7.407-5.785,13.658-13.171,14.232l-0.468,0.056l-0.476,0.001H71.161V373.282z" data-original="#D5E3EF" class="" data-old_color="#f6f8ff"/>
	<path style="fill:#F6F8FF" d="M374.118,241.168l8.421-12.481c10.202-15.12,17.269-31.866,21.001-49.773l1.967-9.432l8.912,3.662   c9.033,3.712,14.87,12.407,14.87,22.154c0,1.243-0.102,2.51-0.303,3.774c5.304,1.812,8.97,6.904,8.97,12.537   c0,3.444-1.338,6.726-3.708,9.186h25.637c5.616,0,10.186,4.569,10.186,10.186s-4.569,10.186-10.186,10.186H374.118z" data-original="#D5E3EF" class="" data-old_color="#f6f8ff"/>
</g><path style="fill:#989FB7" d="M423.197,179.339c-2.367-2.641-5.339-4.781-8.779-6.194l-8.912-3.662l-1.967,9.432  c-3.732,17.906-10.799,34.653-21.001,49.773l-8.421,12.481h25.478C412.188,222.819,420.286,201.722,423.197,179.339z" data-original="#A7BFCE" class="active-path" data-old_color="#A7BFCE"/><path style="fill:#D7DAE8" d="M266.737,7.012c-0.565-0.008-1.127-0.011-1.69-0.011c-27.162,0-53.868,8.029-77.229,23.222  c-23.332,15.172-41.653,36.398-52.984,61.383l-1.194,2.633c0,0-13.321,31.42-11.607,53.721l0.384,8.37  c1.919,41.835,22.089,80.565,55.341,106.26c15.807,12.212,26.995,30.002,31.501,50.091l6.013,26.805  c1.225,5.467,5.992,9.284,11.594,9.284h76.07c5.6,0,10.366-3.816,11.594-9.283l6.013-26.808  c4.497-20.044,15.74-37.876,31.659-50.211c35.176-27.256,55.35-68.377,55.35-112.817C407.553,71.98,344.383,7.992,266.737,7.012z" data-original="#F04D4E" class="" data-old_color="#d7dae8"/><path style="fill:#D7DAE8" d="M312.768,312.681c-4.506-20.088-15.695-37.878-31.501-50.091  c-33.251-25.694-53.422-64.424-55.341-106.26l-0.384-8.37c-1.714-22.3,11.607-53.721,11.607-53.721l1.194-2.633  c11.331-24.985,29.652-46.211,52.984-61.383c8.193-5.329,16.805-9.755,25.697-13.284c-15.625-6.193-32.578-9.704-50.287-9.927  c-0.565-0.008-1.127-0.011-1.69-0.011c-27.162,0-53.868,8.029-77.229,23.222c-23.332,15.172-41.653,36.398-52.984,61.383  l-1.194,2.633c0,0-13.321,31.42-11.607,53.721l0.384,8.37c1.919,41.835,22.089,80.565,55.341,106.26  c15.807,12.212,26.995,30.002,31.501,50.091l6.013,26.805c1.225,5.467,5.992,9.284,11.594,9.284h76.07  c5.6,0,10.366-3.816,11.594-9.283l2.126-9.477L312.768,312.681z" data-original="#CC2535" class="" data-old_color="#d7dae8"/><path style="fill:#D7DAE8" d="M187.007,138.775c0-11.134-9.058-20.191-20.191-20.191h-11.939c-0.241-6.88-3.506-13.166-8.7-17.329  c-0.374-6.988-2.878-13.416-6.864-18.661c-1.595,2.945-3.092,5.949-4.48,9.011l-1.194,2.633c0,0-13.321,31.42-11.607,53.721  l0.384,8.37c0.04,0.88,0.101,1.758,0.157,2.635h44.243C177.95,158.965,187.007,149.908,187.007,138.775z" data-original="#BA112A" class="" data-old_color="#BA112A"/><path style="fill:#F6F8FF" d="M52.119,148.96c-5.616,0-10.186-4.568-10.186-10.185s4.569-10.186,10.186-10.186h14.293  c-2.011-3.574-3.069-7.611-3.069-11.735c0-13.206,10.744-23.95,23.95-23.95c1.063,0,2.138,0.072,3.203,0.214  c3.899-8.503,12.404-13.978,21.776-13.978c13.205,0,23.949,10.744,23.949,23.95c0,1.246-0.102,2.514-0.303,3.775  c5.304,1.813,8.97,6.905,8.97,12.537c0,3.443-1.338,6.726-3.708,9.186h25.637c5.616,0,10.186,4.569,10.186,10.186  s-4.569,10.185-10.186,10.185H52.119V148.96z" data-original="#D5E3EF" class="" data-old_color="#f6f8ff"/><g>
	<path style="fill:#989FB7" d="M85.614,354.574c0-10.412,8.472-18.885,18.885-18.885c0.713,0,1.446,0.044,2.186,0.13   c0.311-0.849,0.685-1.661,1.105-2.442c-3.165-6.008-9.464-10.12-16.713-10.12c-7.938,0-15.012,4.961-17.731,12.386   c-0.739-0.086-1.473-0.13-2.186-0.13c-10.412,0-18.885,8.472-18.885,18.885s8.472,18.885,18.885,18.885h30.9   C92.798,372.08,85.614,364.158,85.614,354.574z" data-original="#A7BFCE" class="active-path" data-old_color="#A7BFCE"/>
	<path style="fill:#989FB7" d="M75.271,138.951c0-5.616,4.569-10.186,10.186-10.186h14.293c-2.011-3.574-3.069-7.611-3.069-11.735   c0-13.206,10.744-23.95,23.95-23.95c1.063,0,2.138,0.072,3.203,0.214c1.279-2.787,3.059-5.242,5.196-7.292   c-4.323-4.24-10.239-6.863-16.758-6.863c-9.371,0-17.876,5.475-21.776,13.978c-1.065-0.142-2.141-0.214-3.203-0.214   c-13.206,0-23.95,10.744-23.95,23.95c0,4.123,1.059,8.16,3.069,11.735H52.119c-5.616,0-10.186,4.569-10.186,10.186   s4.569,10.185,10.186,10.185h31.493C78.875,148.089,75.271,143.937,75.271,138.951z" data-original="#A7BFCE" class="active-path" data-old_color="#A7BFCE"/>
</g><path style="fill:#F6F8FF" d="M244.342,348.77l-1.605-5.906c-0.29-1.071-0.5-2.228-0.622-3.439l-2.728-26.803  c-2.048-20.133-7.129-37.952-14.305-50.175c-15.93-27.138-25.099-68.094-25.158-112.368c-0.074-55.572,15.58-108.202,38.954-130.963  c7.82-7.616,16.116-11.68,24.658-12.078l0.306-0.009l1.987-0.011l0.12,0.004c16.846,0.587,33.36,16.108,45.308,42.581  c12.008,26.607,18.621,62.137,18.621,100.048c0,44.372-9.144,85.44-25.086,112.674c-7.228,12.344-12.332,30.206-14.376,50.295  l-2.726,26.807c-0.125,1.223-0.336,2.381-0.628,3.449l-1.611,5.894H244.342z" data-original="#D5E3EF" class="" data-old_color="#f6f8ff"/><path style="fill:#D7DAE8" d="M287.689,339.427l2.726-26.807c1.249-12.275,3.646-23.711,6.967-33.572  c-4.607-6.189-10.012-11.743-16.115-16.458c-33.251-25.694-53.422-64.424-55.341-106.26l-0.384-8.37  c-1.714-22.3,11.607-53.721,11.607-53.721l1.194-2.633c11.331-24.985,29.652-46.211,52.984-61.383  c2.043-1.329,4.113-2.601,6.206-3.818c-9.583-12.158-20.512-18.997-31.583-19.382l-0.12-0.004l-1.987,0.011l-0.306,0.009  c-8.54,0.398-16.837,4.462-24.658,12.078c-23.373,22.762-39.028,75.392-38.954,130.963c0.059,44.274,9.228,85.23,25.158,112.368  c7.177,12.223,12.257,30.041,14.305,50.175l2.728,26.803c0.122,1.211,0.332,2.367,0.622,3.439l1.605,5.906h41.108l1.611-5.894  C287.353,341.808,287.564,340.65,287.689,339.427z" data-original="#B0C4D9" class="" data-old_color="#d7dae8"/><path d="M459.885,213.793h-15.043c0.077-0.72,0.117-1.449,0.117-2.182c0-6.81-3.319-12.934-8.668-16.633  c-0.143-14.022-9.662-25.834-22.572-29.471c0.546-5.23,0.837-10.518,0.837-15.855c0-39.638-15.343-76.996-43.203-105.188  C343.519,16.296,306.397,0.508,266.826,0.009c-0.28-0.004-0.558,0.007-0.838,0.004c-0.016,0-0.031-0.002-0.047-0.002  c-0.744-0.019-1.489-0.012-2.232,0.015c-28.958,0.214-57.002,8.901-81.334,25.18c-20.944,14.011-37.889,32.774-49.596,54.723  c-5.465-4.843-12.646-7.792-20.506-7.792c-10.451,0-20.07,5.268-25.747,13.774C69.81,86.32,56.34,100.044,56.34,116.855  c0,1.592,0.122,3.173,0.362,4.731h-4.583c-9.479,0-17.19,7.711-17.19,17.19c0,9.478,7.711,17.189,17.19,17.189h63.27  c1.826,44.26,22.772,84.882,58.086,112.167c14.519,11.219,24.801,27.583,28.95,46.084l6.014,26.807  c1.422,6.34,5.851,11.273,11.598,13.481l7.143,61.375h-6.318c-10.512,0-19.066,8.552-19.066,19.066  c0,8.158,5.161,15.116,12.38,17.832l3.65,40.486c0.964,10.685,9.78,18.742,20.508,18.742h53.134  c10.728,0,19.543-8.057,20.508-18.742l3.616-40.108c7.763-2.413,13.415-9.664,13.415-18.21c0-10.513-8.553-19.066-19.066-19.066  h-6.318l7.193-61.802c5.234-2.383,9.213-7.102,10.548-13.053l6.013-26.809c4.141-18.458,14.48-34.87,29.114-46.208  c7.746-6.002,14.788-12.652,21.097-19.833h82.296c9.479,0,17.19-7.711,17.19-17.19S469.362,213.793,459.885,213.793z   M52.119,140.956c-1.203,0-2.182-0.979-2.182-2.181c0-1.203,0.98-2.182,2.182-2.182h15.168c2.716,0,5.22-1.468,6.547-3.837  c1.327-2.369,1.271-5.272-0.149-7.587c-1.529-2.496-2.337-5.371-2.337-8.315c0-8.793,7.153-15.946,15.946-15.946  c0.793,0,1.6,0.061,2.397,0.18c3.346,0.502,6.616-1.304,7.979-4.402c2.547-5.796,8.279-9.541,14.604-9.541  c8.792,0,15.945,7.153,15.945,15.946c0,0.92-0.085,1.866-0.252,2.809c-0.663,3.74,1.572,7.386,5.207,8.489  c2.186,0.664,3.712,2.726,3.712,5.015c0,1.531-0.671,2.983-1.842,3.984c-2.386,2.043-3.248,5.356-2.159,8.302  c1.089,2.947,3.898,4.903,7.039,4.903h26.896c1.203,0,2.182,0.98,2.182,2.182c0,1.203-0.98,2.181-2.182,2.181L52.119,140.956  L52.119,140.956z M226.866,340.766c-1.827,0-3.384-1.246-3.783-3.03l-6.014-26.807c-4.914-21.905-17.137-41.322-34.418-54.674  c-31.608-24.424-50.423-60.716-52.239-100.291h36.405c9.479,0,17.19-7.711,17.19-17.189c0-9.479-7.711-17.19-17.19-17.19h-15.043  c0.077-0.721,0.117-1.449,0.117-2.182c0-6.81-3.319-12.934-8.668-16.633c-0.027-2.718-0.411-5.352-1.1-7.86  c16.564-36.524,48.778-63.669,86.209-74.6c-21.767,26.5-35.482,76.062-35.411,129.778c0.061,45.481,9.581,87.727,26.12,115.904  c6.678,11.375,11.429,28.186,13.377,47.339l2.728,26.806c0.022,0.214,0.056,0.417,0.082,0.628h-8.363V340.766z M297.029,491.91  c-0.262,2.897-2.651,5.083-5.561,5.083h-53.134c-2.908,0-5.299-2.185-5.561-5.083l-3.417-37.904h71.09L297.029,491.91z   M309.942,430.883c2.237,0,4.058,1.82,4.058,4.058c0,2.238-1.82,4.058-4.058,4.058h-89.081c-2.237,0-4.058-1.82-4.058-4.058  c0-2.238,1.82-4.058,4.058-4.058H309.942z M235.294,355.773h22.103v60.102h-15.109L235.294,355.773z M272.405,415.875v-60.102  h23.104l-6.995,60.102H272.405z M347.299,256.141c-17.386,13.472-29.661,32.928-34.566,54.786l-6.013,26.808  c-0.4,1.784-1.956,3.031-3.784,3.031h-8.361c0.026-0.211,0.06-0.414,0.082-0.628l2.727-26.809  c1.944-19.111,6.721-35.967,13.452-47.464c13.983-23.888,22.927-57.825,25.367-95.263c0.28-4.304-3.165-7.942-7.478-7.942h-0.031  c-3.956,0-7.213,3.082-7.468,7.03c-2.275,35.099-10.499,66.653-23.342,88.592c-7.794,13.314-13.275,32.325-15.432,53.529  l-2.726,26.807c-0.09,0.878-0.234,1.595-0.386,2.148h-28.878c-0.15-0.554-0.295-1.271-0.384-2.147l-2.728-26.806  c-2.162-21.253-7.619-40.224-15.366-53.418c-15.231-25.947-23.998-65.43-24.055-108.326C207.857,96.52,222.539,46.2,244.462,24.851  c6.373-6.206,12.929-9.509,19.431-9.817c0.594-0.005,1.187-0.016,1.782-0.013c23.884,0.838,49.202,42.845,54.977,106.964  c0.349,3.874,3.57,6.855,7.459,6.855l0,0c4.418,0,7.858-3.805,7.456-8.204c-2.535-27.712-8.69-53.3-17.954-73.967  c-4.726-10.544-10.107-19.427-15.984-26.528c56.365,16.114,97.921,68.307,97.921,129.51  C399.549,191.598,380.505,230.412,347.299,256.141z M459.885,233.163h-70.709c10.723-15.894,18.261-33.714,22.201-52.616  c5.806,2.385,9.908,8.095,9.908,14.751c0,0.917-0.085,1.863-0.253,2.812c-0.66,3.739,1.575,7.382,5.208,8.485  c2.186,0.664,3.712,2.726,3.712,5.015c0,1.531-0.671,2.983-1.841,3.983c-2.387,2.042-3.249,5.356-2.16,8.302  s3.898,4.904,7.039,4.904h26.896c1.203,0,2.182,0.98,2.182,2.182C462.067,232.184,461.087,233.163,459.885,233.163z" data-original="#000000" class="" style="fill:#2F3453" data-old_color="#2f3453"/><path d="M116.611,337.854c-2.049-12.241-12.72-21.601-25.534-21.601c-9.131,0-17.428,4.788-22.064,12.344  c-13.275,1.096-23.741,12.248-23.741,25.8c0,14.275,11.613,25.888,25.888,25.888h43.977c0.556,0,1.105-0.063,1.64-0.187  c10.498-1.35,18.573-10.42,18.573-21.106C135.35,348.117,127.153,339.118,116.611,337.854z M114.555,365.246  c-0.108,0.009-0.216,0.02-0.323,0.032H71.161c-5.999,0-10.881-4.882-10.881-10.881s4.882-10.881,10.881-10.881  c0.479,0,0.985,0.036,1.502,0.107c3.566,0.487,6.96-1.61,8.121-5.006c1.506-4.401,5.642-7.358,10.293-7.358  c5.999,0,10.881,4.882,10.881,10.881c0,0.793-0.09,1.598-0.268,2.392c-0.605,2.709,0.334,5.532,2.443,7.338  c2.108,1.807,5.044,2.299,7.627,1.283c0.749-0.295,1.522-0.444,2.297-0.444c3.466,0,6.284,2.818,6.284,6.284  C120.342,362.248,117.8,364.994,114.555,365.246z" data-original="#000000" class="" style="fill:#2F3453" data-old_color="#2f3453"/></g> </svg>
